<svg width="1508" height="1508" viewBox="0 0 1508 1508" fill="none" xmlns="http://www.w3.org/2000/svg">
<circle cx="753.5" cy="704.5" r="664.5" fill="#003295"/>
<g clip-path="url(#clip0_68_26)">
<path d="M911.739 351.912C972.912 371.125 1037.63 385.853 1103.63 392.901L1149.66 393.325L1151.09 392.125C1178.61 392.831 1198.95 381.47 1225.71 375.92C1228.59 375.285 1235.51 373.65 1238.44 377.343C1239.79 382.149 1237.69 387.368 1231.9 390.952C1199.12 414.536 1160.03 432.077 1123.18 444.703V443.997C1111.1 446.185 1098.16 451.078 1085.6 454.955C1040.22 467.88 988.541 475.998 939.723 472.691C846.205 468.179 766.719 436.752 684.151 440.472C603.074 436.014 525.966 465.148 482.811 522.646C460.669 552.736 443.056 584.461 437.567 619.357C440.008 650.946 487.172 663.083 504.842 689.209C514.982 705.001 520.008 722.411 527.655 738.806C547.24 771.845 566.652 804.856 590.719 835.957L590.118 836.592C604.208 857.385 626.674 875.398 653.234 887.611C687.673 910.761 718.075 939.782 736.15 970.963L735.207 971.458C755.55 1001.96 766.974 1033.57 782.724 1065.38C789.786 1084.89 797.572 1102.05 803.616 1121.05C805.687 1122.82 805.687 1125.69 806.896 1128.18C812.472 1143.21 817.215 1159.23 824.017 1173.16C821.078 1175.26 826.307 1176.06 825.671 1178.11C826.047 1186.55 834.798 1199.21 823.115 1204.86C806.109 1190.73 797.19 1170.02 788.005 1154.96C767.922 1122.03 744.936 1090.19 720.18 1058.87L720.932 1058.24C705.731 1040.28 688.934 1020.06 671.553 1001.48C598.291 925.206 490.619 879.406 411.92 806.79L411.162 807.431C404.459 801.772 400.149 794.283 394.718 787.832L395.244 787.126C385.654 774.5 379.957 760.099 370.685 747.174L371.211 746.539C346.86 712.43 323.434 676.225 307.684 640.341C304.405 624.467 298.62 610.804 297.336 592.52L295.503 586.536C296.521 569.897 252.608 560.247 276.762 528.326C291.928 512.942 350.631 493.979 370.598 465.094C371.049 460.777 372.114 455.634 368.157 451.73C368.157 448.645 364.75 445.392 362.373 442.188C351.268 429.21 321.161 439.462 321.659 420.304C324.742 420.162 321.809 417.621 323.839 416.524C322.156 407.07 321.456 400.814 324.29 392.831C330.37 377.121 336.293 359.026 335.101 343.175C336.327 337.223 342.661 333.666 349.052 331.342C361.546 328.393 372.472 326.813 384.74 325.276L386.279 326.449C414.616 324.266 448.644 326.167 467.448 347.112C475.58 362.991 469.224 381.818 464.66 397.805C463.237 407.01 452.507 414.526 455.012 424.23C458.731 427.809 466.546 427.591 471.514 425.604C514.294 401.226 551.642 367.395 582.789 333.237C611.502 307.958 653.79 299.215 692.676 304.461C771.456 310.174 838.043 335.013 911.479 351.874L911.739 351.912ZM708.67 485.583C719.769 499.463 704.916 511.709 700.497 523.922C654.264 589.207 638.132 663.159 607.447 733.093C605.151 735.499 600.593 736.232 597.302 735.276C589.135 729.791 589.135 720.739 590.066 712.816C596.226 637.006 617.535 565.878 651.852 498.1C659.875 487.25 673.56 474.956 691.201 477.519C697.859 478.828 703.817 481.022 708.67 485.583ZM830.512 505.383C836.412 530.309 817.406 550.749 808.978 573.052C763.989 657.495 709.988 740.131 683.312 830.396C682.063 833.269 680.281 837.151 676.718 838.406C672.912 839.389 669.713 837.608 668.724 835.077C659.718 799.192 670.089 761.858 679.888 727.755C705.517 651.973 736.526 574.447 779.884 503.971C784.916 500.36 785.697 497.308 791.973 495.63C807.058 494.152 822.172 495.206 830.512 505.388V505.383ZM960.627 509.629C972.744 518.215 966.492 534.441 961.731 544.498C909.015 654.281 823.629 748.939 788.294 864.07C778.53 888.475 772.197 913.699 764.087 938.288C762.659 942.714 755.776 942.85 750.865 941.764C746.18 931.321 747.551 918.071 747.551 906.781C758.685 814.273 782.198 724.399 830.264 643.859C852.116 603.636 873.246 567.453 896.174 528.185C902.646 517.091 913.492 507.034 929.248 503.395C940.839 502.76 952.002 505.307 960.632 509.629H960.627ZM1105.03 515.288C1113.48 528.598 1105.33 543.244 1101.49 555.978C1067.95 644.196 1005.24 717.209 954.871 797.58C911.745 863.609 883.524 936.925 854.812 1008.61C844.869 1030.14 841.294 1054.05 829.234 1074.52C828.251 1076.73 825.168 1075.41 823.057 1075.97C815.647 1070.1 816.602 1061.71 814.855 1054.28C820.552 964.534 857.345 883.446 891.894 802.451C935.136 712.137 993.116 625.89 1032.52 532.508C1038.01 520.729 1048.86 506.3 1065.6 501.875C1082.37 499.496 1095.07 505.187 1105.03 515.293L1105.03 515.288Z" fill="#F4CA35"/>
</g>
<defs>
<clipPath id="clip0_68_26">
<rect width="970" height="902" fill="white" transform="translate(269 303)"/>
</clipPath>
</defs>
</svg>
