<svg width="1508" height="1508" viewBox="0 0 1508 1508" fill="none" xmlns="http://www.w3.org/2000/svg">
<circle cx="753.5" cy="753.5" r="664.5" fill="#FF9B05"/>
<g clip-path="url(#clip0_65_8)">
<path fill-rule="evenodd" clip-rule="evenodd" d="M851.466 23.002C1230.34 62.9179 1527 381.945 1527 773.301C1527 1189.47 1190.53 1526 774.25 1526C357.967 1526 19 1189.47 19 773.301C19 357.035 355.467 18 774.25 18C799.155 18 826.561 20.501 851.466 23.002ZM891.374 1473.68C1277.75 1408.85 1539.4 1042.51 1474.69 653.653C1419.78 332.125 1158.13 97.8318 849.065 65.4189C786.753 57.9159 721.94 60.4169 657.127 70.4209C579.812 82.8258 507.497 107.736 442.784 142.65C781.752 259.796 966.188 436.767 978.591 616.238C986.092 728.383 933.782 808.215 863.968 872.94L1347.56 840.527C1359.97 840.527 1364.97 855.533 1350.06 860.535L195.935 1189.47C313.159 1351.53 495.095 1458.67 696.935 1478.68C761.748 1486.08 826.561 1486.08 891.374 1473.68ZM574.811 788.207C637.123 551.412 564.909 302.213 392.874 170.061C158.628 319.62 21.5005 598.831 71.3104 890.447C86.3134 987.586 121.22 1074.82 171.03 1152.15C355.467 1102.23 517.499 1005.09 574.811 788.207Z" fill="white"/>
<path d="M891.36 1473.67C1277.74 1408.84 1539.39 1042.5 1474.67 653.645C1419.76 332.117 1158.11 97.8243 849.052 65.4114C786.74 57.9084 721.927 60.4094 657.114 70.4134C579.799 82.8183 507.485 107.728 442.772 142.642C781.739 259.789 966.175 436.759 978.577 616.23C986.079 728.374 933.769 808.206 863.955 872.932L1347.55 840.519C1359.95 840.519 1364.95 855.525 1350.05 860.527L195.924 1189.46C313.147 1351.52 495.082 1458.66 696.922 1478.67C761.735 1486.08 826.547 1486.08 891.36 1473.67ZM574.798 788.198C637.11 551.404 564.896 302.205 392.862 170.053C158.616 319.612 21.4893 598.823 71.2991 890.439C86.302 987.577 121.209 1074.81 171.019 1152.14C355.455 1102.22 517.487 1005.08 574.798 788.198Z" fill="#C70A0C"/>
</g>
<defs>
<clipPath id="clip0_65_8">
<rect width="1508" height="1508" fill="white"/>
</clipPath>
</defs>
</svg>
