<svg width="1551" height="1594" viewBox="0 0 1551 1594" fill="none" xmlns="http://www.w3.org/2000/svg">
<circle cx="819.5" cy="713.5" r="664.5" fill="#FF9B05"/>
<path fill-rule="evenodd" clip-rule="evenodd" d="M1457 715C1457 1067.83 1171.78 1353 818.975 1353C466.166 1353 181 1067.83 181 715C181 362.171 466.166 77 818.975 77C1171.78 77 1457 362.171 1457 715ZM1418.69 715C1418.69 383.887 1150.11 115.244 818.975 115.244C487.853 115.244 219.263 383.887 219.263 715C219.263 1046.11 487.853 1314.71 818.975 1314.71C1150.11 1314.71 1418.69 1046.11 1418.69 715ZM1066.37 588.11C1061.51 588.11 1057.44 588.258 1055.13 588.503C1052.48 593.357 1048.51 599.874 1042.62 608.95C1133.96 608.95 1216.92 616.451 1308.65 632.921L1282.75 657.925C1199.94 643.267 1131.17 637.38 1043.56 637.38C1030.76 637.38 1028.11 637.38 1025.01 637.479C1021.97 642.094 1015.11 651.014 1008.18 659.302C1015.98 658.81 1031.04 658.564 1051.84 658.564C1123.91 658.564 1191.27 663.909 1264.35 675.674L1238.45 700.784C1182.87 692.103 1114.84 687.151 1053.85 687.151C1032.18 687.151 1007.55 687.889 985.472 689.16C980.518 694.898 967.517 708.966 963.547 713.287C992.731 710.245 1024.92 708.819 1063.18 708.819C1117.68 708.819 1169.73 712.401 1218.98 719.657L1193.08 744.571C1157.96 740.201 1115.37 737.651 1077.75 737.651C980.616 737.651 904.09 758.688 824.963 807.081C900.358 887.939 1023.88 939.128 1143.58 939.128H1154.77L1112.92 979.577C940.343 947.162 758.64 871.264 605.144 767.271C457.529 667.64 405.88 638.168 290.647 587.225L289.909 557.662L367.854 591.053L394.397 570.017L648.903 686.61L632.318 699.899L501.681 643.119L488.779 653.219L556.677 691.07C613.97 722.993 657.581 737.258 697.903 737.258C786.06 737.258 865.187 674.747 916.204 564.918C954.615 559.917 995.577 557.662 1044.83 557.662C1145.84 557.662 1243.95 567.32 1355.11 588.11L1328.03 614.286C1258.91 599.874 1141.37 588.11 1066.37 588.11Z" fill="white"/>
</svg>
