<svg width="239" height="241" viewBox="0 0 239 241" fill="none" xmlns="http://www.w3.org/2000/svg">
<path fill-rule="evenodd" clip-rule="evenodd" d="M34.5812 35.6002C45.5016 24.1243 58.8481 15.6921 72.8033 9.36984C87.9695 3.04474 103.138 0 119.518 0C135.289 0 150.458 3.04474 165.627 9.36984C180.187 15.6925 192.927 24.1243 204.454 35.6007C215.374 46.3756 223.263 59.2552 229.329 73.7759C235.394 88.5327 238.428 104.223 238.428 120.619C238.428 136.543 235.394 152.238 229.329 167.455C223.263 181.981 215.374 194.392 204.454 205.635C192.927 217.111 180.187 225.548 165.626 231.394C150.458 237.726 135.289 240.766 119.518 240.766C103.138 240.766 87.9691 237.726 72.8028 231.394C58.8481 225.548 45.5012 217.111 34.5812 205.635C23.0535 194.392 15.1663 181.981 9.10071 167.455C3.03325 152.238 0 136.543 0 120.619C0 104.223 3.03277 88.5327 9.10071 73.7759C15.1663 59.2552 23.0535 46.3751 34.5812 35.6002ZM147.425 116.634L159.559 128.349C162.594 131.623 168.054 131.623 172.905 128.349L200.208 110.078L192.927 103.521H231.756L174.119 144.746C166.84 148.72 161.986 149.188 157.74 145.681C152.885 142.164 150.458 140.06 150.458 140.528C146.817 135.374 141.357 134.672 134.684 138.18L98.889 164.649H35.1893L95.8563 118.977L7.27951 119.447L19.4149 107.734H131.651C137.719 107.032 142.571 110.078 147.425 116.634Z" fill="#E1241A"/>
<path fill-rule="evenodd" clip-rule="evenodd" d="M147.426 116.634L159.559 128.349C162.594 131.622 168.055 131.622 172.906 128.349L200.208 110.077L192.927 103.521H231.757L174.12 144.745C166.841 148.72 161.986 149.188 157.74 145.68C152.885 142.164 150.458 140.059 150.458 140.527C146.817 135.373 141.358 134.672 134.684 138.179L98.8893 164.649H35.1896L95.8566 118.976L7.27979 119.446L19.4152 107.734H131.651C137.719 107.032 142.571 110.077 147.426 116.634Z" fill="white"/>
</svg>
