<?xml version="1.0"?><svg height="64px" version="1.1" viewBox="0 0 64 64" width="64px" xmlns="http://www.w3.org/2000/svg" xmlns:xlink="http://www.w3.org/1999/xlink"><title/><desc/><g fill="none" fill-rule="evenodd" id="Search" stroke="none" stroke-width="1"><g fill="#000000" id="Group" transform="translate(5.000000, 5.000000)"><path d="M23,0 C10.2974508,0 0,10.2974508 0,23 C0,35.7025492 10.2974508,46 23,46 C35.7025492,46 46,35.7025492 46,23 C46,10.2974508 35.7025492,0 23,0 Z M23,5 C32.9411255,5 41,13.0588745 41,23 C41,32.9411255 32.9411255,41 23,41 C13.0588745,41 5,32.9411255 5,23 C5,13.0588745 13.0588745,5 23,5 Z" fill-rule="nonzero" id="Mask"/><path d="M35.9289322,36.4289322 C36.9052429,35.4526215 38.4881554,35.4526215 39.4644661,36.4289322 L50.0710678,47.0355339 C51.0473785,48.0118446 51.0473785,49.5947571 50.0710678,50.5710678 C49.0947571,51.5473785 47.5118446,51.5473785 46.5355339,50.5710678 L35.9289322,39.9644661 C34.9526215,38.9881554 34.9526215,37.4052429 35.9289322,36.4289322 Z" id="Rectangle"/></g></g></svg>