<svg xmlns="http://www.w3.org/2000/svg" xmlns:xlink="http://www.w3.org/1999/xlink" version="1.1" x="0px" y="0px" viewBox="-255 347 100 125" style="enable-background:new -255 347 100 100;" xml:space="preserve"><path d="M-169.3,351.4c-3.3-2.3-12.8,5.5-15.3,8.9l-6.2,8.9l-7.2,10.2l-34.2,3.5l-5.9,8.3l29.3,3.4l-12.6,17.9l-16.3,1.7l-4.3,6.1  l22.2,2.6l10,20.1l4.3-6.1l-3.9-15.9c0,0,0,0,0,0l12.6-17.9l13.1,26.5l5.9-8.3l-8.2-33.5l13.5-19.2  C-170.1,365.4-166,353.7-169.3,351.4z"/><text x="-255" y="462" fill="#000000" font-size="5px" font-weight="bold" font-family="'Helvetica Neue', Helvetica, Arial-Unicode, Arial, Sans-serif">Created by Deepz</text><text x="-255" y="467" fill="#000000" font-size="5px" font-weight="bold" font-family="'Helvetica Neue', Helvetica, Arial-Unicode, Arial, Sans-serif">from the Noun Project</text></svg>